<svg viewBox="0 0 200 325.634" xmlns="http://www.w3.org/2000/svg">
  <rect xmlns="http://www.w3.org/2000/svg" width="200" height="200" fill="#81a7f2" rx="10" ry="10" style=""/>
  <g xmlns="http://www.w3.org/2000/svg" fill="#f8ecee" transform="matrix(0.9345800876617432, 0, 0, 0.9389670491218567, -18.69158935546875, -18.779342651367188)" style="">
    <path d="M213.682 123.613c.546-30.475-2.177-60.34-13.735-70.343-25.28-21.878-135.609-10.392-148.218-9.185-12.278 1.178-20.032 13.758 3.477 16.006 24.01 2.296 74.79 6.462 100.72 19.028 21.485 9.195 39.714 23.343 57.756 44.494z"/>
    <path d="M175.697 101.007c10.695 26.746 12.746 74.021 14.59 96.565 1.95 23.808 15.728 16.205 16.993 4.493.656-6.075 4.472-33.77 5.916-63.913-12.435-15.865-24.506-27.953-37.499-37.145z"/>
  </g>
  <path fill="#81a7f2" d="M 71.922 271.558 L 56.956 271.558 L 53.185 230.864 L 40.969 271.558 L 31.07 271.558 L 18.854 230.668 L 15.044 271.559 L 0 271.559 L 5.067 213.816 L 26.947 213.816 L 35.981 243.315 L 45.133 213.816 L 66.934 213.816 L 71.922 271.558 Z M 80.336 271.558 L 80.336 213.816 L 95.302 213.816 L 95.302 271.558 L 80.336 271.558 Z M 141.031 271.558 L 124.729 248.384 L 121.155 248.384 L 121.155 271.558 L 106.189 271.558 L 106.189 213.816 L 121.155 213.816 L 121.155 235.42 L 124.611 235.42 L 141.502 213.816 L 159.689 213.816 L 137.575 241.47 L 160.081 271.558 L 141.03 271.558 L 141.031 271.558 Z M 200 226.818 L 179.888 226.818 L 179.888 236.245 L 197.8 236.245 L 197.8 249.129 L 179.889 249.129 L 179.889 258.439 L 200 258.439 L 200 271.559 L 164.924 271.559 L 164.924 213.816 L 200 213.816 L 200 226.818 Z M 18.445 325.634 C 8.942 325.634 1.21 321.06 0 312.354 L 11.657 309.697 C 11.982 314.419 14.933 316.632 18.918 316.632 C 21.809 316.632 23.58 315.245 23.58 312.766 C 23.58 309.52 19.419 308.309 14.579 306.657 C 8.47 304.621 1.623 302.083 1.623 294.085 C 1.623 285.998 8.175 281.04 17.53 281.04 C 25.145 281.04 33.436 284.051 35.238 293.023 L 24.436 295.678 C 23.817 291.754 21.75 290.042 18.268 290.042 C 15.17 290.042 12.985 291.252 12.985 293.79 C 12.985 296.21 16.881 297.184 21.338 298.63 C 27.565 300.695 35.237 303.529 35.237 312.117 C 35.237 321.65 27.21 325.634 18.445 325.634 Z M 67.942 281.66 L 79.186 281.66 L 79.186 325.043 L 67.942 325.043 L 67.942 308.133 L 51.947 308.133 L 51.947 325.043 L 40.703 325.043 L 40.703 281.661 L 51.947 281.661 L 51.947 298.452 L 67.942 298.452 L 67.942 281.66 Z M 106.994 325.634 C 93.89 325.634 84.477 316.751 84.477 303.352 C 84.477 289.865 93.891 281.04 106.994 281.04 C 120.127 281.04 129.542 289.864 129.542 303.352 C 129.542 316.751 120.127 325.634 106.994 325.634 Z M 106.994 315.423 C 113.545 315.423 118.444 310.789 118.444 303.352 C 118.444 295.915 113.545 291.252 106.994 291.252 C 100.471 291.252 95.631 295.915 95.631 303.352 C 95.631 310.789 100.471 315.423 106.994 315.423 Z M 161.186 291.429 L 146.075 291.429 L 146.075 298.512 L 159.534 298.512 L 159.534 308.192 L 146.075 308.192 L 146.075 315.186 L 161.187 315.186 L 161.187 325.043 L 134.831 325.043 L 134.831 281.661 L 161.187 281.661 L 161.187 291.429 L 161.186 291.429 Z M 183.208 325.634 C 173.704 325.634 165.973 321.06 164.763 312.354 L 176.42 309.697 C 176.744 314.419 179.696 316.632 183.679 316.632 C 186.572 316.632 188.343 315.245 188.343 312.766 C 188.343 309.52 184.181 308.309 179.341 306.657 C 173.232 304.621 166.385 302.083 166.385 294.085 C 166.385 285.998 172.937 281.04 182.292 281.04 C 189.906 281.04 198.199 284.051 200 293.023 L 189.198 295.678 C 188.578 291.754 186.513 290.042 183.03 290.042 C 179.931 290.042 177.748 291.252 177.748 293.79 C 177.748 296.21 181.643 297.184 186.1 298.63 C 192.326 300.695 200 303.529 200 312.117 C 200 321.65 191.973 325.634 183.208 325.634 Z" style=""/>
</svg>